<mxfile host="app.diagrams.net" agent="Mozilla/5.0 (Windows NT 10.0; Win64; x64) AppleWebKit/537.36 (KHTML, like Gecko) Chrome/134.0.0.0 Safari/537.36" version="26.2.9">
  <diagram name="Page-1" id="7YX_lSwjEALe1SeLGPOg">
    <mxGraphModel dx="1723" dy="619" grid="1" gridSize="10" guides="1" tooltips="1" connect="1" arrows="1" fold="1" page="1" pageScale="1" pageWidth="850" pageHeight="1100" math="0" shadow="0">
      <root>
        <mxCell id="0" />
        <mxCell id="1" parent="0" />
        <mxCell id="frqq6zxRNW8OhI8182HL-8" value="" style="group" vertex="1" connectable="0" parent="1">
          <mxGeometry x="170" y="674" width="90" height="70" as="geometry" />
        </mxCell>
        <mxCell id="frqq6zxRNW8OhI8182HL-6" value="LookingAt" style="rounded=0;whiteSpace=wrap;html=1;verticalAlign=top;" vertex="1" parent="frqq6zxRNW8OhI8182HL-8">
          <mxGeometry width="90" height="70" as="geometry" />
        </mxCell>
        <mxCell id="frqq6zxRNW8OhI8182HL-7" value="" style="sketch=0;outlineConnect=0;fontColor=#232F3E;gradientColor=none;fillColor=#232F3D;strokeColor=none;dashed=0;verticalLabelPosition=bottom;verticalAlign=top;align=center;html=1;fontSize=12;fontStyle=0;aspect=fixed;pointerEvents=1;shape=mxgraph.aws4.question;" vertex="1" parent="frqq6zxRNW8OhI8182HL-8">
          <mxGeometry x="37.120000000000005" y="30" width="15.77" height="30" as="geometry" />
        </mxCell>
        <mxCell id="frqq6zxRNW8OhI8182HL-10" value="" style="group" vertex="1" connectable="0" parent="1">
          <mxGeometry x="370" y="350" width="120" height="60" as="geometry" />
        </mxCell>
        <mxCell id="frqq6zxRNW8OhI8182HL-5" value="Traverse Waypoints" style="rounded=0;whiteSpace=wrap;html=1;verticalAlign=top;" vertex="1" parent="frqq6zxRNW8OhI8182HL-10">
          <mxGeometry width="120" height="60" as="geometry" />
        </mxCell>
        <mxCell id="frqq6zxRNW8OhI8182HL-9" value="" style="shape=flexArrow;endArrow=classic;html=1;rounded=0;endWidth=10.4;endSize=7.936;" edge="1" parent="frqq6zxRNW8OhI8182HL-10">
          <mxGeometry width="50" height="50" relative="1" as="geometry">
            <mxPoint x="20" y="40" as="sourcePoint" />
            <mxPoint x="100" y="40" as="targetPoint" />
          </mxGeometry>
        </mxCell>
        <mxCell id="frqq6zxRNW8OhI8182HL-16" value="" style="group" vertex="1" connectable="0" parent="1">
          <mxGeometry x="230" y="450" width="120" height="60" as="geometry" />
        </mxCell>
        <mxCell id="frqq6zxRNW8OhI8182HL-17" value="MoveTo WP_1" style="rounded=0;whiteSpace=wrap;html=1;verticalAlign=top;" vertex="1" parent="frqq6zxRNW8OhI8182HL-16">
          <mxGeometry width="120" height="60" as="geometry" />
        </mxCell>
        <mxCell id="frqq6zxRNW8OhI8182HL-18" value="" style="shape=flexArrow;endArrow=classic;html=1;rounded=0;endWidth=10.4;endSize=7.936;" edge="1" parent="frqq6zxRNW8OhI8182HL-16">
          <mxGeometry width="50" height="50" relative="1" as="geometry">
            <mxPoint x="20" y="40" as="sourcePoint" />
            <mxPoint x="100" y="40" as="targetPoint" />
          </mxGeometry>
        </mxCell>
        <mxCell id="frqq6zxRNW8OhI8182HL-19" style="edgeStyle=orthogonalEdgeStyle;rounded=0;orthogonalLoop=1;jettySize=auto;html=1;exitX=0.25;exitY=1;exitDx=0;exitDy=0;" edge="1" parent="1" source="frqq6zxRNW8OhI8182HL-5" target="frqq6zxRNW8OhI8182HL-17">
          <mxGeometry relative="1" as="geometry" />
        </mxCell>
        <mxCell id="frqq6zxRNW8OhI8182HL-20" value="" style="group" vertex="1" connectable="0" parent="1">
          <mxGeometry x="510" y="450" width="120" height="60" as="geometry" />
        </mxCell>
        <mxCell id="frqq6zxRNW8OhI8182HL-21" value="MoveTo WP_N" style="rounded=0;whiteSpace=wrap;html=1;verticalAlign=top;" vertex="1" parent="frqq6zxRNW8OhI8182HL-20">
          <mxGeometry width="120" height="60" as="geometry" />
        </mxCell>
        <mxCell id="frqq6zxRNW8OhI8182HL-22" value="" style="shape=flexArrow;endArrow=classic;html=1;rounded=0;endWidth=10.4;endSize=7.936;" edge="1" parent="frqq6zxRNW8OhI8182HL-20">
          <mxGeometry width="50" height="50" relative="1" as="geometry">
            <mxPoint x="20" y="40" as="sourcePoint" />
            <mxPoint x="100" y="40" as="targetPoint" />
          </mxGeometry>
        </mxCell>
        <mxCell id="frqq6zxRNW8OhI8182HL-23" value="" style="group" vertex="1" connectable="0" parent="1">
          <mxGeometry x="370" y="450" width="120" height="60" as="geometry" />
        </mxCell>
        <mxCell id="frqq6zxRNW8OhI8182HL-24" value="..." style="rounded=0;whiteSpace=wrap;html=1;verticalAlign=top;" vertex="1" parent="frqq6zxRNW8OhI8182HL-23">
          <mxGeometry width="120" height="60" as="geometry" />
        </mxCell>
        <mxCell id="frqq6zxRNW8OhI8182HL-25" value="" style="shape=flexArrow;endArrow=classic;html=1;rounded=0;endWidth=10.4;endSize=7.936;" edge="1" parent="frqq6zxRNW8OhI8182HL-23">
          <mxGeometry width="50" height="50" relative="1" as="geometry">
            <mxPoint x="20" y="40" as="sourcePoint" />
            <mxPoint x="100" y="40" as="targetPoint" />
          </mxGeometry>
        </mxCell>
        <mxCell id="frqq6zxRNW8OhI8182HL-26" style="edgeStyle=orthogonalEdgeStyle;rounded=0;orthogonalLoop=1;jettySize=auto;html=1;exitX=0.5;exitY=1;exitDx=0;exitDy=0;entryX=0.5;entryY=0;entryDx=0;entryDy=0;" edge="1" parent="1" source="frqq6zxRNW8OhI8182HL-5" target="frqq6zxRNW8OhI8182HL-24">
          <mxGeometry relative="1" as="geometry" />
        </mxCell>
        <mxCell id="frqq6zxRNW8OhI8182HL-27" style="edgeStyle=orthogonalEdgeStyle;rounded=0;orthogonalLoop=1;jettySize=auto;html=1;exitX=0.75;exitY=1;exitDx=0;exitDy=0;entryX=0.5;entryY=0;entryDx=0;entryDy=0;" edge="1" parent="1" source="frqq6zxRNW8OhI8182HL-5" target="frqq6zxRNW8OhI8182HL-21">
          <mxGeometry relative="1" as="geometry" />
        </mxCell>
        <mxCell id="frqq6zxRNW8OhI8182HL-32" value="" style="group" vertex="1" connectable="0" parent="1">
          <mxGeometry x="305" y="560" width="100" height="70" as="geometry" />
        </mxCell>
        <mxCell id="frqq6zxRNW8OhI8182HL-33" value="MoveStraight" style="rounded=0;whiteSpace=wrap;html=1;verticalAlign=top;" vertex="1" parent="frqq6zxRNW8OhI8182HL-32">
          <mxGeometry width="90" height="70" as="geometry" />
        </mxCell>
        <mxCell id="frqq6zxRNW8OhI8182HL-34" value="" style="shape=flexArrow;endArrow=classic;html=1;rounded=0;endWidth=10.4;endSize=7.936;" edge="1" parent="frqq6zxRNW8OhI8182HL-32">
          <mxGeometry width="50" height="50" relative="1" as="geometry">
            <mxPoint x="16.666666666666664" y="46.66666666666667" as="sourcePoint" />
            <mxPoint x="83.33333333333333" y="46.66666666666667" as="targetPoint" />
          </mxGeometry>
        </mxCell>
        <mxCell id="frqq6zxRNW8OhI8182HL-35" style="edgeStyle=orthogonalEdgeStyle;rounded=0;orthogonalLoop=1;jettySize=auto;html=1;exitX=0.5;exitY=1;exitDx=0;exitDy=0;entryX=0.5;entryY=0;entryDx=0;entryDy=0;" edge="1" parent="1" source="frqq6zxRNW8OhI8182HL-17" target="frqq6zxRNW8OhI8182HL-48">
          <mxGeometry relative="1" as="geometry">
            <mxPoint x="200" y="580" as="targetPoint" />
          </mxGeometry>
        </mxCell>
        <mxCell id="frqq6zxRNW8OhI8182HL-37" style="edgeStyle=orthogonalEdgeStyle;rounded=0;orthogonalLoop=1;jettySize=auto;html=1;exitX=0.5;exitY=1;exitDx=0;exitDy=0;entryX=0.5;entryY=0;entryDx=0;entryDy=0;" edge="1" parent="1" source="frqq6zxRNW8OhI8182HL-17" target="frqq6zxRNW8OhI8182HL-33">
          <mxGeometry relative="1" as="geometry" />
        </mxCell>
        <mxCell id="frqq6zxRNW8OhI8182HL-41" value="Rotate Clockwise" style="rounded=0;whiteSpace=wrap;html=1;verticalAlign=middle;align=center;" vertex="1" parent="1">
          <mxGeometry x="65" y="784" width="90" height="70" as="geometry" />
        </mxCell>
        <mxCell id="frqq6zxRNW8OhI8182HL-38" style="edgeStyle=orthogonalEdgeStyle;rounded=0;orthogonalLoop=1;jettySize=auto;html=1;exitX=0.5;exitY=1;exitDx=0;exitDy=0;" edge="1" parent="1" source="frqq6zxRNW8OhI8182HL-6" target="frqq6zxRNW8OhI8182HL-41">
          <mxGeometry relative="1" as="geometry">
            <mxPoint x="215.20689655172418" y="784" as="targetPoint" />
          </mxGeometry>
        </mxCell>
        <mxCell id="frqq6zxRNW8OhI8182HL-44" value="Rotate Counter-&lt;span style=&quot;background-color: transparent; color: light-dark(rgb(0, 0, 0), rgb(255, 255, 255));&quot;&gt;clockwise&lt;/span&gt;" style="rounded=0;whiteSpace=wrap;html=1;verticalAlign=middle;align=center;" vertex="1" parent="1">
          <mxGeometry x="170" y="784" width="90" height="70" as="geometry" />
        </mxCell>
        <mxCell id="frqq6zxRNW8OhI8182HL-45" style="edgeStyle=orthogonalEdgeStyle;rounded=0;orthogonalLoop=1;jettySize=auto;html=1;exitX=0.5;exitY=1;exitDx=0;exitDy=0;entryX=0.5;entryY=0;entryDx=0;entryDy=0;" edge="1" parent="1" source="frqq6zxRNW8OhI8182HL-6" target="frqq6zxRNW8OhI8182HL-44">
          <mxGeometry relative="1" as="geometry" />
        </mxCell>
        <mxCell id="frqq6zxRNW8OhI8182HL-46" value="Move backwards" style="rounded=0;whiteSpace=wrap;html=1;verticalAlign=middle;align=center;" vertex="1" parent="1">
          <mxGeometry x="275" y="784" width="90" height="70" as="geometry" />
        </mxCell>
        <mxCell id="frqq6zxRNW8OhI8182HL-47" style="edgeStyle=orthogonalEdgeStyle;rounded=0;orthogonalLoop=1;jettySize=auto;html=1;exitX=0.5;exitY=1;exitDx=0;exitDy=0;entryX=0.5;entryY=0;entryDx=0;entryDy=0;" edge="1" parent="1" source="frqq6zxRNW8OhI8182HL-6" target="frqq6zxRNW8OhI8182HL-46">
          <mxGeometry relative="1" as="geometry" />
        </mxCell>
        <mxCell id="frqq6zxRNW8OhI8182HL-50" style="edgeStyle=orthogonalEdgeStyle;rounded=0;orthogonalLoop=1;jettySize=auto;html=1;exitX=0.5;exitY=1;exitDx=0;exitDy=0;entryX=0.5;entryY=0;entryDx=0;entryDy=0;" edge="1" parent="1" source="frqq6zxRNW8OhI8182HL-48" target="frqq6zxRNW8OhI8182HL-6">
          <mxGeometry relative="1" as="geometry" />
        </mxCell>
        <mxCell id="frqq6zxRNW8OhI8182HL-48" value="&lt;b&gt;Repeat Until Success&lt;/b&gt;" style="rhombus;whiteSpace=wrap;html=1;" vertex="1" parent="1">
          <mxGeometry x="175" y="560" width="80" height="80" as="geometry" />
        </mxCell>
        <mxCell id="frqq6zxRNW8OhI8182HL-51" value="Designing Robust Navigation (In Progress)" style="rounded=0;whiteSpace=wrap;html=1;" vertex="1" parent="1">
          <mxGeometry x="40" y="40" width="120" height="60" as="geometry" />
        </mxCell>
      </root>
    </mxGraphModel>
  </diagram>
</mxfile>
